<svg width="17" height="10" viewBox="0 0 17 10" fill="none" xmlns="http://www.w3.org/2000/svg">
<path d="M3.42188 0.310669C4.20312 0.310669 4.82227 0.49231 5.2793 0.855591C5.73633 1.21887 5.96484 1.72083 5.96484 2.36145C5.96484 2.78333 5.83398 3.16809 5.57227 3.51575C5.31055 3.8634 4.89258 4.17981 4.31836 4.46497C5.01367 4.797 5.50781 5.14661 5.80078 5.51379C6.09375 5.87708 6.24023 6.29895 6.24023 6.77942C6.24023 7.49036 5.99219 8.05872 5.49609 8.4845C5 8.90637 4.32031 9.11731 3.45703 9.11731C2.54297 9.11731 1.83984 8.91809 1.34766 8.51965C0.855469 8.11731 0.609375 7.54895 0.609375 6.81458C0.609375 5.83411 1.20703 5.07043 2.40234 4.52356C1.86328 4.21887 1.47656 3.89075 1.24219 3.53918C1.00781 3.18372 0.890625 2.78723 0.890625 2.34973C0.890625 1.72864 1.11914 1.2345 1.57617 0.86731C2.03711 0.496216 2.65234 0.310669 3.42188 0.310669ZM1.57031 6.83801C1.57031 7.30676 1.73242 7.672 2.05664 7.93372C2.38477 8.19543 2.84375 8.32629 3.43359 8.32629C4.01562 8.32629 4.46875 8.18958 4.79297 7.91614C5.11719 7.6427 5.2793 7.2677 5.2793 6.79114C5.2793 6.41223 5.12695 6.07629 4.82227 5.78333C4.51758 5.48645 3.98633 5.19934 3.22852 4.922C2.64648 5.172 2.22461 5.44934 1.96289 5.75403C1.70117 6.05481 1.57031 6.41614 1.57031 6.83801ZM3.41016 1.10168C2.92188 1.10168 2.53906 1.21887 2.26172 1.45325C1.98438 1.68762 1.8457 2.00012 1.8457 2.39075C1.8457 2.75012 1.96094 3.05872 2.19141 3.31653C2.42188 3.57434 2.84766 3.83215 3.46875 4.08997C4.02734 3.85559 4.42188 3.60364 4.65234 3.33411C4.88672 3.06458 5.00391 2.75012 5.00391 2.39075C5.00391 1.99622 4.86133 1.68372 4.57617 1.45325C4.29492 1.21887 3.90625 1.10168 3.41016 1.10168ZM8.28516 2.9884C8.28516 3.65247 8.35742 4.15051 8.50195 4.48254C8.64648 4.81458 8.88086 4.98059 9.20508 4.98059C9.8457 4.98059 10.166 4.31653 10.166 2.9884C10.166 1.66809 9.8457 1.00793 9.20508 1.00793C8.88086 1.00793 8.64648 1.172 8.50195 1.50012C8.35742 1.82825 8.28516 2.32434 8.28516 2.9884ZM10.9688 2.9884C10.9688 3.87903 10.8184 4.55286 10.5176 5.00989C10.2207 5.46301 9.7832 5.68958 9.20508 5.68958C8.6582 5.68958 8.23242 5.45715 7.92773 4.99231C7.62695 4.52747 7.47656 3.8595 7.47656 2.9884C7.47656 2.10168 7.62109 1.43372 7.91016 0.984497C8.20312 0.535278 8.63477 0.310669 9.20508 0.310669C9.77148 0.310669 10.207 0.543091 10.5117 1.00793C10.8164 1.47278 10.9688 2.13293 10.9688 2.9884ZM13.4414 6.422C13.4414 7.08997 13.5137 7.58997 13.6582 7.922C13.8027 8.25012 14.0391 8.41418 14.3672 8.41418C14.6953 8.41418 14.9375 8.25208 15.0938 7.92786C15.25 7.59973 15.3281 7.09778 15.3281 6.422C15.3281 5.75403 15.25 5.25989 15.0938 4.93958C14.9375 4.61536 14.6953 4.45325 14.3672 4.45325C14.0391 4.45325 13.8027 4.61536 13.6582 4.93958C13.5137 5.25989 13.4414 5.75403 13.4414 6.422ZM16.1309 6.422C16.1309 7.30872 15.9805 7.98059 15.6797 8.43762C15.3828 8.89075 14.9453 9.11731 14.3672 9.11731C13.8125 9.11731 13.3848 8.88489 13.084 8.42004C12.7871 7.9552 12.6387 7.28918 12.6387 6.422C12.6387 5.53528 12.7832 4.86731 13.0723 4.41809C13.3652 3.96887 13.7969 3.74426 14.3672 3.74426C14.9219 3.74426 15.3535 3.97473 15.6621 4.43567C15.9746 4.8927 16.1309 5.55481 16.1309 6.422ZM14.6191 0.433716L9.86719 9.00012H9.00586L13.7578 0.433716H14.6191Z" fill="white"/>
</svg>
